<svg width="239" height="194" viewBox="0 0 239 194" fill="none" xmlns="http://www.w3.org/2000/svg">
<path d="M121.111 197.745C175.184 197.745 219.019 153.486 219.019 98.8886C219.019 44.2915 175.184 0.0318604 121.111 0.0318604C67.038 0.0318604 23.203 44.2915 23.203 98.8886C23.203 153.486 67.038 197.745 121.111 197.745Z" fill="#373E46"/>
<path opacity="0.6" d="M85.038 11.4045L73.8696 79.6689L121.812 87.6653L132.98 19.4008L85.038 11.4045Z" fill="#4F555B"/>
<path d="M84.5843 10.2985L73.4159 78.563L122.589 86.7646L133.757 18.5001L84.5843 10.2985Z" fill="#E64B25"/>
<path d="M96.0254 75.1345L103.864 76.435" stroke="white" stroke-width="0.97" stroke-miterlimit="10"/>
<path d="M94.4254 74.8704L95.4619 75.0431" stroke="white" stroke-width="0.97" stroke-miterlimit="10"/>
<path d="M96.9813 38.1217L94.033 37.634L94.9587 31.9952L97.7561 32.4626C99.0139 32.676 99.6277 33.3668 99.4768 34.2914C99.4359 34.5382 99.329 34.769 99.1676 34.9588C99.0062 35.1486 98.7965 35.2902 98.5611 35.3684C98.8116 35.5022 99.0131 35.7134 99.1362 35.9712C99.2593 36.2289 99.2976 36.5197 99.2453 36.8009C99.0441 37.8271 98.1888 38.3249 96.9813 38.1217ZM97.3938 33.8037L96.3171 33.6208L96.1863 34.4032L97.263 34.586C97.5548 34.586 97.7863 34.586 97.8265 34.2711C97.8668 33.9561 97.6655 33.824 97.3737 33.824L97.3938 33.8037ZM97.2127 35.8357L95.9851 35.6325L95.8442 36.5164L97.0718 36.7196C97.1327 36.7378 97.1967 36.7428 97.2596 36.7344C97.3225 36.726 97.3829 36.7043 97.437 36.6708C97.4911 36.6372 97.5376 36.5926 97.5735 36.5398C97.6094 36.4869 97.6339 36.4271 97.6454 36.364C97.6525 36.2999 97.6461 36.2349 97.6265 36.1734C97.607 36.112 97.5747 36.0554 97.532 36.0074C97.4892 35.9594 97.4368 35.9211 97.3783 35.895C97.3198 35.8689 97.2565 35.8556 97.1926 35.856L97.2127 35.8357Z" fill="white"/>
<path d="M99.8691 38.6094L100.795 32.9706L102.375 33.2347L101.68 37.4511L104.377 37.8982L104.146 39.3206L99.8691 38.6094Z" fill="white"/>
<path d="M108.613 40.0622L108.503 38.9751L106.702 38.6703L106.249 39.6863L104.518 39.4018L107.426 34.0983L109.338 34.4132L110.395 40.3772L108.613 40.0622ZM108.13 35.5308L107.235 37.4816L108.362 37.6644L108.13 35.5308Z" fill="white"/>
<path d="M114.51 41.0478L114.872 38.8126L112.91 38.4874L112.548 40.7227L110.958 40.4585L111.884 34.8197L113.474 35.0839L113.152 37.0651L115.114 37.3902L115.436 35.409L117.036 35.6731L116.11 41.3119L114.51 41.0478Z" fill="white"/>
<path d="M95.6026 46.4021L92.6543 45.9144L93.58 40.2756L96.3774 40.743C97.6352 40.9564 98.2491 41.6472 98.0981 42.5718C98.0573 42.8186 97.9504 43.0493 97.789 43.2392C97.6276 43.429 97.4178 43.5706 97.1824 43.6488C97.4329 43.7826 97.6345 43.9938 97.7576 44.2516C97.8807 44.5093 97.9189 44.8001 97.8667 45.0813C97.6856 46.1075 96.8302 46.6155 95.6026 46.4021ZM96.0152 42.0841L94.9687 41.952L94.8379 42.7344L95.9146 42.9172C96.2064 42.9172 96.4378 42.9172 96.4781 42.6023C96.5183 42.2873 96.307 42.1349 95.9749 42.0841H96.0152ZM95.8341 44.1161L94.6064 43.9129L94.4656 44.7968L95.6932 45C95.754 45.0182 95.818 45.0232 95.8809 45.0148C95.9438 45.0064 96.0043 44.9847 96.0584 44.9512C96.1124 44.9176 96.159 44.873 96.1948 44.8202C96.2307 44.7673 96.2552 44.7075 96.2667 44.6444C96.2737 44.5819 96.2678 44.5187 96.2495 44.4586C96.2311 44.3985 96.2007 44.3429 96.1601 44.2952C96.1195 44.2475 96.0696 44.2088 96.0135 44.1815C95.9574 44.1542 95.8963 44.1388 95.8341 44.1364V44.1161Z" fill="white"/>
<path d="M98.5107 46.8898L99.4365 41.251L101.016 41.5151L100.322 45.7315L103.019 46.1786L102.787 47.601L98.5107 46.8898Z" fill="white"/>
<path d="M107.265 48.3528L107.154 47.2657L105.353 46.9609L104.9 47.9769L103.17 47.6924L106.037 42.3584L107.949 42.6734L109.006 48.6373L107.265 48.3528ZM106.782 43.8214L105.887 45.7722L107.014 45.955L106.782 43.8214Z" fill="white"/>
<path d="M113.152 49.3383L113.514 47.1031L111.552 46.778L111.189 49.0132L109.6 48.749L110.525 43.1102L112.115 43.3744L111.793 45.3556L113.755 45.6807L114.077 43.6995L115.677 43.9637L114.752 49.6025L113.152 49.3383Z" fill="white"/>
<path d="M94.2442 54.6926L91.2959 54.205L92.2216 48.5662L94.9687 49.064C96.2265 49.2774 96.8403 49.9683 96.6894 50.8928C96.6485 51.1396 96.5416 51.3704 96.3802 51.5602C96.2188 51.75 96.0091 51.8916 95.7737 51.9698C96.0242 52.1036 96.2257 52.3148 96.3488 52.5726C96.4719 52.8303 96.5102 53.1211 96.4579 53.4023C96.3372 54.398 95.4819 54.8958 94.2442 54.6926ZM94.6568 50.3746L93.5801 50.1918L93.4493 50.9741L94.5259 51.157C94.8178 51.157 95.0492 51.157 95.0894 50.842C95.1297 50.527 94.9687 50.4153 94.6568 50.3746ZM94.4756 52.4066L93.248 52.2034L93.1071 53.0874L94.3348 53.2906C94.3956 53.3087 94.4596 53.3138 94.5225 53.3053C94.5854 53.2969 94.6459 53.2752 94.7 53.2417C94.754 53.2082 94.8005 53.1635 94.8364 53.1107C94.8723 53.0579 94.8968 52.998 94.9083 52.935C94.9168 52.8717 94.912 52.8073 94.8944 52.746C94.8767 52.6847 94.8465 52.6278 94.8058 52.579C94.765 52.5302 94.7146 52.4905 94.6577 52.4626C94.6009 52.4347 94.5388 52.4191 94.4756 52.4168V52.4066Z" fill="white"/>
<path d="M97.1523 55.1601L98.0781 49.5212L99.6579 49.7854L98.9636 54.0018L101.66 54.4489L101.429 55.8713L97.1523 55.1601Z" fill="white"/>
<path d="M105.907 56.6434L105.796 55.5563L103.995 55.2514L103.542 56.2675L101.811 55.983L104.719 50.6794L106.631 50.9944L107.637 56.9583L105.907 56.6434ZM105.424 52.112L104.528 54.0627L105.655 54.2456L105.424 52.112Z" fill="white"/>
<path d="M111.803 57.6187L112.166 55.3835L110.203 55.0584L109.841 57.2936L108.251 57.0294L109.177 51.3906L110.767 51.6548L110.445 53.636L112.407 53.9611L112.729 51.9799L114.329 52.2441L113.403 57.8829L111.803 57.6187Z" fill="white"/>
<path d="M123.625 46.6202C125.359 35.7822 118.064 25.5763 107.33 23.8247C96.5961 22.0731 86.4882 29.4391 84.7534 40.2771C83.0186 51.1151 90.3139 61.3209 101.048 63.0725C111.782 64.8241 121.89 57.4582 123.625 46.6202Z" stroke="#232A32" stroke-width="3.37959" stroke-miterlimit="10"/>
<path d="M92.7751 28.1953L115.738 60.5448" stroke="#232A32" stroke-width="3.37" stroke-miterlimit="10"/>
<path opacity="0.6" d="M208.916 4.0757L105.07 42.5502L134.665 123.987L238.512 85.5124L208.916 4.0757Z" fill="#4F555B"/>
<path d="M209.358 2.16224L103.499 41.3822L133.094 122.819L238.953 83.5989L209.358 2.16224Z" fill="#D5DCE4"/>
<path d="M162.426 46.2948L117.705 62.8634L134.115 108.017L178.835 91.4484L162.426 46.2948Z" fill="white" stroke="black" stroke-width="1.67" stroke-miterlimit="10"/>
<path d="M206.891 82.5459C219.808 77.7599 226.438 63.3067 221.698 50.2637C216.958 37.2206 202.643 30.527 189.725 35.313C176.808 40.099 170.178 54.5522 174.918 67.5952C179.658 80.6382 193.973 87.3319 206.891 82.5459Z" fill="white" stroke="black" stroke-width="1.67" stroke-miterlimit="10"/>
<path d="M197.858 59.1935L148.38 77.4408" stroke="black" stroke-width="1.29" stroke-miterlimit="10"/>
<path d="M208.252 35.0635L197.536 59.102" stroke="black" stroke-width="1.38" stroke-miterlimit="10"/>
<path d="M221.273 70.5829L197.707 59.2444" stroke="black" stroke-width="1.38" stroke-miterlimit="10"/>
<path d="M134.233 108.165L148.381 77.4409" stroke="black" stroke-width="1.38" stroke-miterlimit="10"/>
<path d="M117.7 62.9832L148.381 77.4408" stroke="black" stroke-width="1.38" stroke-miterlimit="10"/>
<path d="M155.364 53.5997L143.572 59.1516L149.071 71.0577L160.862 65.5058L155.364 53.5997Z" fill="#4D4E4E"/>
<path d="M153.784 52.8314L141.992 58.3833L147.491 70.2893L159.283 64.7375L153.784 52.8314Z" fill="#FBE054"/>
<path d="M196.155 66.4021L184.363 71.954L189.862 83.86L201.653 78.3082L196.155 66.4021Z" fill="#4D4E4E"/>
<path d="M194.575 65.6338L182.783 71.1857L188.282 83.0917L200.074 77.5398L194.575 65.6338Z" fill="#FBE054"/>
<path d="M218.585 52.6047L206.906 58.3944L212.64 70.1866L224.319 64.3969L218.585 52.6047Z" fill="#4D4E4E"/>
<path d="M217 51.8731L205.321 57.6628L211.055 69.4551L222.734 63.6654L217 51.8731Z" fill="#F59120"/>
<path d="M156.636 82.7105L143.72 84.291L145.285 97.3325L158.201 95.752L156.636 82.7105Z" fill="#4D4E4E"/>
<path d="M155.363 81.4916L142.447 83.0721L144.012 96.1136L156.928 94.5331L155.363 81.4916Z" fill="#F59120"/>
<path d="M200.536 30.3007L187.62 31.8812L189.185 44.9227L202.102 43.3422L200.536 30.3007Z" fill="#4D4E4E"/>
<path d="M199.283 29.0806L186.367 30.6611L187.932 43.7026L200.848 42.1221L199.283 29.0806Z" fill="#F59120"/>
<path d="M111.693 48.3629L142.373 37.004" stroke="black" stroke-width="1.67" stroke-miterlimit="10"/>
<path d="M220.619 85.5587L233.479 80.8038" stroke="black" stroke-width="1.67" stroke-miterlimit="10"/>
<path d="M218.003 86.5341L219.693 85.9042" stroke="black" stroke-width="1.67" stroke-miterlimit="10"/>
<path d="M159.979 35.8656L113.265 53.1726L114.277 55.9578L160.991 38.6507L159.979 35.8656Z" fill="white"/>
<path d="M209.987 17.3331L163.925 34.3987L164.938 37.1838L210.999 20.1183L209.987 17.3331Z" fill="white"/>
<path opacity="0.6" d="M187.937 91.2614L145.391 159.374L193.223 189.834L235.77 121.722L187.937 91.2614Z" fill="#4F555B"/>
<path d="M187.91 89.935L145.363 158.047L194.429 189.294L236.976 121.181L187.91 89.935Z" fill="#B9D452"/>
<path d="M197.314 116.506L193.954 121.891L178.407 111.985L175.449 116.73L218.375 144.07L220.378 140.86L221.344 139.325L224.704 133.941L197.314 116.506Z" fill="white"/>
<path d="M189.063 95.1396L207.729 107.027" stroke="black" stroke-width="1.13" stroke-miterlimit="10"/>
<path d="M179.806 109.75L193.32 118.355" stroke="black" stroke-width="0.96" stroke-miterlimit="10"/>
<path d="M181.255 107.433L190.683 113.428" stroke="black" stroke-width="0.96" stroke-miterlimit="10"/>
<path d="M224.081 117.441L231.899 122.419" stroke="black" stroke-width="1.13" stroke-miterlimit="10"/>
<path d="M222.491 116.425L223.517 117.085" stroke="black" stroke-width="1.13" stroke-miterlimit="10"/>
<path d="M217.198 140.189L218.234 140.849" stroke="#D5DCE4" stroke-width="1.44" stroke-miterlimit="10"/>
<path d="M214.139 138.238L215.165 138.899" stroke="#D5DCE4" stroke-width="1.44" stroke-miterlimit="10"/>
<path d="M211.07 136.288L212.096 136.938" stroke="#D5DCE4" stroke-width="1.44" stroke-miterlimit="10"/>
<path d="M189.063 129.714L185.702 135.099L170.156 125.203L167.197 129.938L210.124 157.278L212.126 154.068L213.092 152.533L216.453 147.149L189.063 129.714Z" fill="white"/>
<path d="M171.554 122.958L185.068 131.563" stroke="black" stroke-width="0.96" stroke-miterlimit="10"/>
<path d="M173.003 120.641L182.432 126.646" stroke="black" stroke-width="0.96" stroke-miterlimit="10"/>
<path d="M208.947 153.397L209.983 154.057" stroke="#D5DCE4" stroke-width="1.44" stroke-miterlimit="10"/>
<path d="M205.888 151.446L206.914 152.107" stroke="#D5DCE4" stroke-width="1.44" stroke-miterlimit="10"/>
<path d="M202.819 149.496L203.845 150.156" stroke="#D5DCE4" stroke-width="1.44" stroke-miterlimit="10"/>
<path d="M180.741 143.044L177.371 148.429L161.824 138.533L158.866 143.278L201.802 170.618L203.805 167.408L204.761 165.874L208.122 160.489L180.741 143.044Z" fill="white"/>
<path d="M163.223 136.298L176.737 144.893" stroke="black" stroke-width="0.96" stroke-miterlimit="10"/>
<path d="M164.682 133.971L174.1 139.976" stroke="black" stroke-width="0.96" stroke-miterlimit="10"/>
<path d="M200.625 166.737L201.651 167.398" stroke="#D5DCE4" stroke-width="1.44" stroke-miterlimit="10"/>
<path d="M197.556 164.786L198.582 165.437" stroke="#D5DCE4" stroke-width="1.44" stroke-miterlimit="10"/>
<path d="M194.487 162.826L195.523 163.486" stroke="#D5DCE4" stroke-width="1.44" stroke-miterlimit="10"/>
<path d="M172.48 156.272L169.109 161.657L153.573 151.761L150.604 156.506L193.541 183.836L195.543 180.636L196.499 179.092L199.86 173.707L172.48 156.272Z" fill="white"/>
<path d="M154.971 149.516L168.475 158.121" stroke="black" stroke-width="0.96" stroke-miterlimit="10"/>
<path d="M156.42 147.199L165.839 153.204" stroke="black" stroke-width="0.96" stroke-miterlimit="10"/>
<path d="M214.529 114.583L187.515 97.3802L186.022 99.7693L213.037 116.972L214.529 114.583Z" fill="white"/>
<path d="M212.391 118.02L185.377 100.817L183.884 103.206L210.899 120.409L212.391 118.02Z" fill="white"/>
<path d="M230.462 124.718L215.772 115.363L214.28 117.752L228.97 127.107L230.462 124.718Z" fill="white"/>
<path d="M228.3 128.158L213.61 118.803L212.118 121.192L226.808 130.547L228.3 128.158Z" fill="white"/>
<path opacity="0.6" d="M47.3608 56.7973L0.837769 126.439L49.748 159.749L96.2711 90.1073L47.3608 56.7973Z" fill="#4F555B"/>
<path d="M47.4049 55.3606L0.881836 125.002L51.0434 159.164L97.5665 89.5229L47.4049 55.3606Z" fill="#F5CE40"/>
<path d="M32.2593 126.351L40.259 131.797" stroke="black" stroke-width="1.18" stroke-miterlimit="10"/>
<path d="M30.6292 125.234L31.6857 125.955" stroke="black" stroke-width="1.18" stroke-miterlimit="10"/>
<path d="M35.1472 122.023L43.1469 127.469" stroke="black" stroke-width="1.18" stroke-miterlimit="10"/>
<path d="M33.8491 123.974L41.8387 129.419" stroke="black" stroke-width="1.18" stroke-miterlimit="10"/>
<path d="M36.4553 120.082L44.4449 125.518" stroke="black" stroke-width="1.18" stroke-miterlimit="10"/>
<path d="M56.5962 78.5617L42.7815 69.1533L38.2068 76.0012L52.0215 85.4096L56.5962 78.5617Z" fill="white"/>
<path d="M76.7999 105.848L36.5656 78.4467L31.9909 85.2946L72.2253 112.696L76.7999 105.848Z" fill="white"/>
<path d="M58.1747 106.269L30.5537 87.4583L25.9791 94.3062L53.6001 113.117L58.1747 106.269Z" fill="white"/>
<path d="M58.1456 119.378L24.5266 96.4823L19.952 103.33L53.571 126.226L58.1456 119.378Z" fill="white"/>
<path d="M32.0958 115.623L18.2317 106.178L12.3769 114.94L26.241 124.385L32.0958 115.623Z" fill="white" stroke="#F5CE40" stroke-width="0.931162" stroke-miterlimit="10"/>
<path d="M14.4486 111.69L28.3047 121.129" stroke="#F5CE40" stroke-width="0.93" stroke-miterlimit="10"/>
<path d="M21.1603 107.88L17.3164 113.641" stroke="#F5CE40" stroke-width="0.93" stroke-miterlimit="10"/>
<path d="M23.8671 109.729L20.0232 115.49" stroke="#F5CE40" stroke-width="0.93" stroke-miterlimit="10"/>
<path d="M26.5638 111.568L22.72 117.329" stroke="#F5CE40" stroke-width="0.93" stroke-miterlimit="10"/>
<path d="M29.2908 113.417L25.4469 119.178" stroke="#F5CE40" stroke-width="0.93" stroke-miterlimit="10"/>
<path d="M19.0271 111.081L21.7339 112.92" stroke="#F5CE40" stroke-width="0.93" stroke-miterlimit="10"/>
<path d="M24.4307 114.759L27.1475 116.608" stroke="#F5CE40" stroke-width="0.93" stroke-miterlimit="10"/>
<path d="M21.3817 116.415L19.3793 119.402" stroke="#F5CE40" stroke-width="0.93" stroke-miterlimit="10"/>
<path opacity="0.6" d="M201.627 92.779L70.356 69.575L52.5074 172.515L183.779 195.719L201.627 92.779Z" fill="#4F555B"/>
<path d="M203.241 91.0699L69.422 67.4156L51.5735 170.356L185.392 194.01L203.241 91.0699Z" fill="#D6DDE5"/>
<path d="M192.198 105.329L74.1986 84.4708L61.2746 159.009L179.274 179.867L192.198 105.329Z" fill="white" stroke="black" stroke-width="2.01" stroke-miterlimit="10"/>
<path d="M65.697 133.514L183.69 154.372" stroke="black" stroke-width="2.01" stroke-miterlimit="10"/>
<path d="M98.5712 88.7693L90.0684 137.822" stroke="black" stroke-width="2.01" stroke-miterlimit="10"/>
<path d="M121.655 92.8536L113.152 141.906" stroke="black" stroke-width="2.01" stroke-miterlimit="10"/>
<path d="M144.637 96.9176L136.124 145.96" stroke="black" stroke-width="2.01" stroke-miterlimit="10"/>
<path d="M167.821 101.012L159.318 150.065" stroke="black" stroke-width="2.01" stroke-miterlimit="10"/>
<path d="M93.8518 115.968L116.935 120.052" stroke="black" stroke-width="2.01" stroke-miterlimit="10"/>
<path d="M139.918 124.106L163.001 128.19" stroke="black" stroke-width="2.01" stroke-miterlimit="10"/>
<path d="M124.693 143.938L120.276 169.43" stroke="black" stroke-width="2.01" stroke-miterlimit="10"/>
<path d="M182.987 111.748L167.058 108.986L164.323 125.07L180.252 127.831L182.987 111.748Z" fill="#4D4D4D"/>
<path d="M180.254 109.493L164.405 106.691L161.63 122.694L177.479 125.495L180.254 109.493Z" fill="#FDE255"/>
<path d="M139.296 101.213L123.269 99.7773L121.847 115.96L137.874 117.395L139.296 101.213Z" fill="#4D4D4D"/>
<path d="M138.07 99.4138L122.043 97.9781L120.621 114.16L136.648 115.596L138.07 99.4138Z" fill="#FDE255"/>
<path d="M183.027 134.106L166.938 132.969L165.811 149.215L181.901 150.352L183.027 134.106Z" fill="#4D4D4D"/>
<path d="M181.551 131.433L165.499 130.323L164.399 146.53L180.451 147.641L181.551 131.433Z" fill="#F6921E"/>
<path d="M133.567 125.561L118.774 119.171L112.446 134.108L127.239 140.497L133.567 125.561Z" fill="#4D4D4D"/>
<path d="M132.953 123.474L118.16 117.085L111.831 132.021L126.625 138.411L132.953 123.474Z" fill="#F6921E"/>
<path d="M75.2262 78.5077L114.007 85.3555" stroke="black" stroke-width="2.01" stroke-miterlimit="10"/>
<path d="M195.858 97.3348L137.332 87.1875L136.731 90.718L195.257 100.865L195.858 97.3348Z" fill="white"/>
<path opacity="0.6" d="M66.8675 5.48811L18.2757 28.6485C17.15 29.185 16.6682 30.5414 17.1996 31.678L49.4805 100.724C50.0119 101.861 51.3553 102.347 52.481 101.811L101.073 78.6502C102.199 78.1136 102.68 76.7572 102.149 75.6206L69.868 6.57465C69.3366 5.43802 67.9932 4.95155 66.8675 5.48811Z" fill="#4F555B"/>
<path d="M66.2242 4.09968L17.6324 27.26C16.5067 27.7966 16.0249 29.153 16.5563 30.2896L48.8372 99.3356C49.3686 100.472 50.712 100.959 51.8377 100.422L100.429 77.2618C101.555 76.7252 102.037 75.3688 101.506 74.2322L69.2247 5.18622C68.6933 4.04959 67.3499 3.56313 66.2242 4.09968Z" fill="#00394C"/>
<path d="M66.6327 9.43994L92.6442 65.0761C94.7574 69.6075 93.902 74.7484 90.2695 76.4858L58.8644 91.4515C55.2319 93.1888 50.3717 90.7606 48.2485 86.2394L22.2369 30.6439L66.6327 9.43994Z" fill="#F1F1F1"/>
<path d="M38.3412 31.6162L30.0605 35.563L33.9695 43.9238L42.2501 39.977L38.3412 31.6162Z" fill="#06ADE1"/>
<path d="M65.4166 18.7039L44.3511 28.7444L45.0598 30.2604L66.1254 20.2199L65.4166 18.7039Z" fill="#06ADE1"/>
<path d="M61.4871 28.0014L47.1917 34.8151L48.2569 37.0936L62.5524 30.28L61.4871 28.0014Z" fill="#06ADE1"/>
<path d="M45.0928 46.0401L36.8121 49.9869L40.7211 58.3478L49.0017 54.401L45.0928 46.0401Z" fill="#C7C7C6"/>
<path d="M72.1625 33.137L51.0969 43.1775L51.8057 44.6935L72.8712 34.653L72.1625 33.137Z" fill="#C7C7C6"/>
<path d="M68.243 42.4446L53.9475 49.2583L55.0128 51.5369L69.3083 44.7232L68.243 42.4446Z" fill="#C7C7C6"/>
<path d="M51.8295 60.4775L43.5488 64.4243L47.4578 72.7852L55.7384 68.8384L51.8295 60.4775Z" fill="#C7C7C6"/>
<path d="M78.9183 47.57L57.8528 57.6105L58.5615 59.1264L79.6271 49.086L78.9183 47.57Z" fill="#C7C7C6"/>
<path d="M74.9888 56.8778L60.6934 63.6914L61.7586 65.97L76.0541 59.1563L74.9888 56.8778Z" fill="#C7C7C6"/>
<path d="M58.5854 74.9209L50.3048 78.8677L54.2137 87.2285L62.4944 83.2817L58.5854 74.9209Z" fill="#C7C7C6"/>
<path d="M85.6742 62.0133L64.6086 72.0538L65.3174 73.5698L86.3829 63.5293L85.6742 62.0133Z" fill="#C7C7C6"/>
<path d="M81.7356 71.3151L67.4402 78.1288L68.5055 80.4073L82.8009 73.5937L81.7356 71.3151Z" fill="#C7C7C6"/>
<path d="M61.682 14.6317L59.3676 9.68382C58.768 8.58624 57.7735 7.76328 56.5899 7.38508C55.4063 7.00689 54.124 7.10238 53.0081 7.65182L29.1801 18.9701C28.0969 19.4936 27.2621 20.4275 26.857 21.5689C26.4519 22.7104 26.5093 23.9671 27.0167 25.0661L29.3311 30.014L61.682 14.6317Z" fill="#6F757B"/>
<path d="M60.6201 12.3588L28.262 27.7817L29.3273 30.0603L61.6854 14.6374L60.6201 12.3588Z" fill="#ACAFB1"/>
<path d="M44.4952 7.408C44.2587 6.86859 43.9176 6.38245 43.492 5.97824C43.0665 5.57404 42.5651 5.25994 42.0174 5.05446C41.4697 4.84899 40.8869 4.7563 40.3032 4.78186C39.7195 4.80742 39.1467 4.95071 38.6187 5.20328L36.5459 6.21928C34.2617 7.3064 32.9234 10.141 34 12.4474L36.3446 17.4664L46.88 12.4474L44.4952 7.408ZM40.6312 12.234C40.2545 12.4162 39.8325 12.4809 39.4192 12.42C39.0058 12.359 38.6198 12.1752 38.3103 11.8919C38.0009 11.6086 37.782 11.2387 37.6816 10.8292C37.5812 10.4198 37.6038 9.98951 37.7465 9.59312C37.8893 9.19674 38.1457 8.85227 38.4831 8.60362C38.8205 8.35496 39.2236 8.2134 39.6411 8.19697C40.0585 8.18054 40.4713 8.29 40.8268 8.51138C41.1824 8.73277 41.4646 9.05604 41.6375 9.44C41.8653 9.94602 41.8876 10.5221 41.6994 11.0445C41.5113 11.5669 41.1278 11.9939 40.6312 12.234Z" fill="#6F757B"/>
<path opacity="0.6" d="M23.103 122.874L45.8341 195.578L96.8929 179.303L74.1618 106.599L23.103 122.874Z" fill="#4F555B"/>
<path d="M22.1374 122.097L44.8685 194.801L97.2324 178.11L74.5013 105.407L22.1374 122.097Z" fill="#83C5DA"/>
<path d="M47.2122 132.457L49.0134 138.208L32.4203 143.491L34.0102 148.551L79.8247 133.941L78.7581 130.527L78.2449 128.881L76.4437 123.13L47.2122 132.457Z" fill="white"/>
<path d="M26.8759 125.416L46.7996 119.066" stroke="black" stroke-width="1.07" stroke-miterlimit="10"/>
<path d="M31.6757 141.103L46.0952 136.501" stroke="black" stroke-width="0.91" stroke-miterlimit="10"/>
<path d="M30.9008 138.624L40.9633 135.414" stroke="black" stroke-width="0.91" stroke-miterlimit="10"/>
<path d="M64.2579 113.499L72.5997 110.837" stroke="black" stroke-width="1.07" stroke-miterlimit="10"/>
<path d="M62.5474 114.037L63.6542 113.692" stroke="black" stroke-width="1.07" stroke-miterlimit="10"/>
<path d="M76.333 132.427L77.4298 132.081" stroke="#D5DCE4" stroke-width="1.36" stroke-miterlimit="10"/>
<path d="M73.0526 133.473L74.1595 133.128" stroke="#D5DCE4" stroke-width="1.36" stroke-miterlimit="10"/>
<path d="M69.7823 134.52L70.8892 134.164" stroke="#D5DCE4" stroke-width="1.36" stroke-miterlimit="10"/>
<path d="M51.6195 146.549L53.4207 152.3L36.8276 157.593L38.4175 162.653L84.2321 148.043L83.1654 144.619L82.6522 142.983L80.8511 137.232L51.6195 146.549Z" fill="white"/>
<path d="M36.083 155.205L50.5026 150.603" stroke="black" stroke-width="0.91" stroke-miterlimit="10"/>
<path d="M35.3082 152.726L45.3707 149.516" stroke="black" stroke-width="0.91" stroke-miterlimit="10"/>
<path d="M80.7404 146.529L81.8372 146.183" stroke="#D5DCE4" stroke-width="1.36" stroke-miterlimit="10"/>
<path d="M77.4701 147.575L78.5669 147.22" stroke="#D5DCE4" stroke-width="1.36" stroke-miterlimit="10"/>
<path d="M74.1897 148.622L75.2966 148.266" stroke="#D5DCE4" stroke-width="1.36" stroke-miterlimit="10"/>
<path d="M56.0771 160.783L57.8783 166.534L41.2853 171.827L42.8651 176.887L88.6897 162.277L87.613 158.853L87.0998 157.217L85.3087 151.467L56.0771 160.783Z" fill="white"/>
<path d="M40.5408 169.44L54.9503 164.837" stroke="black" stroke-width="0.91" stroke-miterlimit="10"/>
<path d="M39.7659 166.961L49.8183 163.75" stroke="black" stroke-width="0.91" stroke-miterlimit="10"/>
<path d="M85.188 160.763L86.2949 160.418" stroke="#D5DCE4" stroke-width="1.36" stroke-miterlimit="10"/>
<path d="M81.9177 161.809L83.0145 161.454" stroke="#D5DCE4" stroke-width="1.36" stroke-miterlimit="10"/>
<path d="M78.6473 162.856L79.7442 162.5" stroke="#D5DCE4" stroke-width="1.36" stroke-miterlimit="10"/>
<path d="M60.4846 174.896L62.2858 180.646L45.6927 185.94L47.2826 190.999L93.0972 176.389L92.0306 172.965L91.5174 171.329L89.7162 165.579L60.4846 174.896Z" fill="white"/>
<path d="M56.36 118.726L27.5249 127.917L28.3216 130.465L57.1567 121.274L56.36 118.726Z" fill="white"/>
<path d="M74.4907 116.977L28.6711 131.581L29.4678 134.129L75.2874 119.525L74.4907 116.977Z" fill="white"/>
<path d="M73.3593 113.306L57.6799 118.303L58.4766 120.851L74.156 115.854L73.3593 113.306Z" fill="white"/>
</svg>
